# xmcd
#
# Track frame offsets:
#	150
#	11950
#	22105
#	31205
#	41887
#	52732
#	63640
#	75972
#	85750
#	97160
#	108690
#	120990
#	132510
#	143197
#	153692
#	164392
#	174430
#	185332
#	197517
#	209487
#	220102
#	233392
#	243202
#	253162
#	262837
#
# Disc length: 3630 seconds
#
# Revision: 0
# Processed by: cddbd v1.4PL0 Copyright (c) Steve Scherf et al.
# Submitted via: EasyCDDAExtractor 4.6.0.1
#
DISCID=580e2c19
DTITLE=Jim and Jesse - Bluegrass and More Vol. 3
DYEAR=1900
DGENRE=Country
TTITLE0=Ole Slew Foot
TTITLE1=Sleepy Eyed John
TTITLE2=Tell Her Lies And Feed Her Candy
TTITLE3=Y'all Come
TTITLE4=Company's Coming
TTITLE5=Stay A Little Longer
TTITLE6=Rabbit In The Log
TTITLE7=Salty Dog Blues
TTITLE8=Alabam
TTITLE9=Good Bunch Of Biscuits
TTITLE10=Bluegrass Banjo
TTITLE11=Don't Let Nobody Tie You Down
TTITLE12=Big Hands
TTITLE13=Dancing Molly
TTITLE14=If You've Seen One You've Seen Them All
TTITLE15=Memphis
TTITLE16=Maybelline
TTITLE17=Johnny B. Goode
TTITLE18=Sweet Little Sixteen
TTITLE19=Roll Over Beethoven
TTITLE20=Reelin' And Rockin'
TTITLE21=Brown Eyed Handsome Man
TTITLE22=Too Much Monkey Business
TTITLE23=Bye, Bye Johnny
TTITLE24=Back In The Usa
EXTD=
EXTT0=
EXTT1=
EXTT2=
EXTT3=
EXTT4=
EXTT5=
EXTT6=
EXTT7=
EXTT8=
EXTT9=
EXTT10=
EXTT11=
EXTT12=
EXTT13=
EXTT14=
EXTT15=
EXTT16=
EXTT17=
EXTT18=
EXTT19=
EXTT20=
EXTT21=
EXTT22=
EXTT23=
EXTT24=
PLAYORDER=
